<svg width="32" height="32" viewBox="0 0 32 32" fill="none" xmlns="http://www.w3.org/2000/svg">
<path d="M31.7453 13.2386C30.8538 8.45816 28.3098 4.80217 24.1817 2.2582C22.0571 0.950495 19.7243 0.236071 17.2332 0.0496991C17.1524 0.0434867 17.0716 0.015531 16.994 0C16.3261 0 15.6614 0 14.9936 0C14.4189 0.080761 13.8412 0.142885 13.2697 0.242283C9.56707 0.888371 6.4702 2.63405 3.98525 5.44516C1.72394 7.99845 0.444183 10.9959 0.0745456 14.3848C0.0528022 14.5898 0.0248495 14.7948 0 14.9998C0 15.6676 0 16.3324 0 17.0002C0.080761 17.5966 0.139775 18.1961 0.248492 18.7894C0.956704 22.6938 2.8608 25.8994 5.9204 28.4155C8.2252 30.3102 10.8748 31.4347 13.8257 31.854C14.2139 31.9099 14.6053 31.9503 14.9967 32C15.6645 32 16.3293 32 16.9971 32C17.5935 31.9192 18.193 31.8602 18.7831 31.7515C22.6845 31.0402 25.8963 29.1423 28.4092 26.0796C30.4283 23.6195 31.5745 20.7804 31.9161 17.6152C31.9379 17.4102 31.9658 17.2052 31.9938 17.0002C31.9938 16.3324 31.9938 15.6676 31.9938 14.9998C31.9099 14.4096 31.8509 13.8163 31.7453 13.2386ZM25.9522 17.2704C25.8932 18.37 25.8031 19.4727 25.6199 20.5568C25.4087 21.8117 24.57 22.5789 23.2964 22.6659C21.1066 22.815 18.9105 22.8864 16.7175 22.9889C16.5001 22.9983 16.2796 22.9889 16.0621 22.9889C16.0621 23.0138 16.059 23.0355 16.059 23.0604C13.8132 22.9548 11.5675 22.8523 9.32168 22.7404C9.01106 22.7249 8.70045 22.6752 8.39604 22.61C7.31198 22.3801 6.57581 21.7309 6.38944 20.6407C6.19375 19.4945 6.09435 18.3296 6.02912 17.1679C5.93283 15.4191 6.01359 13.6704 6.25898 11.934C6.50747 10.1759 7.33372 9.39934 9.11357 9.25024C12.8752 8.9303 16.643 8.93652 20.4108 9.09493C21.3551 9.13531 22.3025 9.20986 23.2436 9.31547C24.6352 9.47389 25.4428 10.2504 25.6789 11.6327C25.9926 13.5026 26.0516 15.385 25.9522 17.2704Z" fill="#999999"/>
<path d="M14.0146 18.9817C15.7479 17.9815 17.447 17.003 19.2051 15.9935C17.4439 14.9809 15.7448 14.0025 14.0146 13.0054C14.0146 15.0151 14.0146 16.9751 14.0146 18.9817Z" fill="#999999"/>
</svg>
