<svg width="32" height="32" viewBox="0 0 32 32" fill="none" xmlns="http://www.w3.org/2000/svg">
<path d="M15.9735 6.85827e-07C7.16373 -0.00255931 0.00512275 7.16203 2.75064e-06 15.9863C-0.00511725 24.8158 7.13813 31.988 15.9471 32C24.7569 32.0119 31.9232 24.8542 31.9368 16.0282C31.9513 7.18507 24.797 0.00256068 15.9735 6.85827e-07ZM25.8321 16.0136C25.8227 16.0136 25.8133 16.0136 25.8031 16.0136C25.8031 17.4959 25.8773 18.9815 25.7852 20.4578C25.658 22.4922 24.8166 24.1536 22.9077 25.111C21.9776 25.5778 20.9732 25.7707 19.945 25.7775C17.2954 25.7954 14.6449 25.7937 11.9953 25.7783C11.0319 25.7724 10.089 25.5983 9.20405 25.1947C7.40437 24.3746 6.49728 22.9009 6.20288 21.0005C6.13291 20.55 6.11072 20.0883 6.10901 19.6309C6.10048 17.1469 6.10389 14.662 6.1056 12.1771C6.10645 11.3178 6.23275 10.4764 6.53824 9.67082C7.28405 7.70645 8.77483 6.67733 10.7878 6.34112C11.3092 6.25408 11.846 6.22165 12.375 6.21909C14.8762 6.20714 17.3773 6.20714 19.8775 6.21738C20.7548 6.2208 21.6166 6.35818 22.4375 6.67904C24.4181 7.45386 25.4285 8.98048 25.7357 11.0276C25.8048 11.4893 25.8227 11.9612 25.827 12.4288C25.8406 13.6252 25.8321 14.8198 25.8321 16.0136Z" fill="#999999"/>
<path d="M23.9486 11.345C23.7523 9.73557 22.7411 8.58955 21.1736 8.22859C20.7418 8.1296 20.2895 8.08096 19.8466 8.07413C18.5589 8.05451 17.2713 8.06731 15.9827 8.06731C15.9827 8.05707 15.9827 8.04597 15.9827 8.03573C15.7276 8.03573 15.4716 8.03061 15.2164 8.03659C13.9083 8.0656 12.5958 8.04085 11.2928 8.1424C9.79862 8.25931 8.70124 9.02816 8.21399 10.4874C8.03137 11.0335 7.94007 11.6334 7.93324 12.2102C7.90337 14.6738 7.91788 17.1382 7.92385 19.6018C7.92471 19.9525 7.94092 20.3067 7.99212 20.6531C8.19521 22.0253 8.97942 23.3872 10.7049 23.7524C11.1597 23.8488 11.629 23.9146 12.0932 23.9239C13.6045 23.9547 15.1157 23.9683 16.6278 23.9589C17.9573 23.9504 19.2911 23.9555 20.6155 23.8599C22.125 23.7507 23.2335 22.9827 23.7259 21.5116C23.9119 20.9569 23.9981 20.3442 24.0058 19.7571C24.0356 17.3046 24.0211 14.8505 24.0152 12.3971C24.0134 12.0464 23.9913 11.6931 23.9486 11.345ZM15.9896 21.201C13.1002 21.1992 10.78 18.8927 10.7783 16.0204C10.7757 13.1156 13.0831 10.8005 15.981 10.8005C18.8525 10.8005 21.1539 13.1165 21.1608 16.0135C21.1659 18.8688 18.8397 21.2027 15.9896 21.201ZM21.2077 11.8595C20.6291 11.8672 20.1692 11.4277 20.1521 10.8517C20.135 10.2706 20.6027 9.79019 21.1855 9.78933C21.7564 9.78848 22.218 10.2433 22.2257 10.8142C22.2342 11.3825 21.7769 11.8518 21.2077 11.8595Z" fill="#999999"/>
<path d="M15.9635 12.6455C14.1083 12.6498 12.615 14.1508 12.6201 16.0051C12.6253 17.8636 14.1228 19.3587 15.9746 19.3544C17.8314 19.3493 19.3222 17.8508 19.3171 15.994C19.312 14.1337 17.8178 12.6413 15.9635 12.6455Z" fill="#999999"/>
</svg>
