<svg width="32" height="32" viewBox="0 0 32 32" fill="none" xmlns="http://www.w3.org/2000/svg">
<path d="M28.1349 5.60881C25.7873 2.82534 22.7823 1.08879 19.2199 0.342008C17.4333 -0.0331713 15.6253 -0.118927 13.8209 0.181217C7.33208 1.26388 3.00501 4.94778 0.796813 11.1222C0.339452 12.3978 0.121488 13.7341 0.0678905 15.0955C0.0607442 15.2491 0.025012 15.4028 0 15.5564C0 15.8494 0 16.1388 0 16.4318C0.0464508 16.8749 0.0893302 17.318 0.135781 17.7611C0.489522 20.9733 1.71154 23.8211 3.79468 26.283C6.17438 29.0986 9.18654 30.878 12.7918 31.6391C13.51 31.7892 14.2532 31.8321 14.9822 31.925C15.1751 31.95 15.3716 31.975 15.5646 32C15.8576 32 16.147 32 16.44 32C16.8724 31.9535 17.3047 31.9107 17.7371 31.8642C20.9422 31.5176 23.7828 30.3063 26.2483 28.2411C29.0889 25.8578 30.9398 22.8385 31.6437 19.1975C32.6299 14.1307 31.4686 9.56427 28.1349 5.60881ZM17.2118 12.9087C18.2945 12.9087 19.3414 12.9087 20.4312 12.9087C20.3919 13.3589 20.3597 13.7699 20.3204 14.1808C20.249 14.8954 20.1525 15.6064 20.0989 16.3211C20.0775 16.5891 19.981 16.6462 19.738 16.6427C18.9162 16.6319 18.0944 16.6391 17.2118 16.6391C17.2118 16.7856 17.2118 16.9142 17.2118 17.0429C17.2118 20.2622 17.2118 23.4781 17.2118 26.6975C17.2118 27.1191 17.2118 27.1227 16.7795 27.1227C15.5825 27.1227 14.3819 27.1155 13.1849 27.1298C12.8776 27.1334 12.799 27.0298 12.799 26.7368C12.8097 23.5174 12.8061 20.3016 12.8061 17.0822C12.8061 16.9499 12.8061 16.8177 12.8061 16.6427C12.2237 16.6427 11.6734 16.6248 11.1267 16.6498C10.8266 16.6641 10.7337 16.5712 10.7409 16.2675C10.7587 15.267 10.7551 14.2665 10.7409 13.2696C10.7373 13.0016 10.8087 12.9016 11.091 12.9123C11.6413 12.9337 12.1951 12.9195 12.7847 12.9195C12.7918 12.7837 12.8026 12.6658 12.8026 12.5443C12.8204 11.6903 12.7918 10.8327 12.8669 9.9859C13.0384 7.99567 14.2425 6.43421 16.4472 6.24483C17.687 6.13764 18.9448 6.19481 20.1918 6.17694C20.3705 6.17337 20.4562 6.23411 20.4562 6.43063C20.4526 7.48114 20.4491 8.53521 20.4562 9.58571C20.4562 9.81439 20.3276 9.82869 20.1525 9.82869C19.4843 9.82511 18.8197 9.82511 18.1515 9.82869C17.5262 9.83226 17.2118 10.1431 17.2082 10.772C17.2082 11.4616 17.2118 12.1691 17.2118 12.9087Z" fill="#999999"/>
</svg>
