<svg width="64" height="64" viewBox="0 0 64 64" fill="none" xmlns="http://www.w3.org/2000/svg">
<path d="M56.2698 11.2176C51.5747 5.65068 45.5646 2.17759 38.4398 0.684016C34.8667 -0.0663427 31.2507 -0.237853 27.6418 0.362434C14.6642 2.52775 6.01002 9.89556 1.59363 22.2443C0.678904 24.7955 0.242975 27.4683 0.135781 30.191C0.121488 30.4983 0.0500239 30.8056 0 31.1129C0 31.6988 0 32.2777 0 32.8637C0.0929016 33.7498 0.17866 34.636 0.271562 35.5221C0.979043 41.9466 3.42307 47.6422 7.58935 52.566C12.3488 58.1972 18.3731 61.7561 25.5837 63.2782C27.0201 63.5784 28.5065 63.6641 29.9643 63.8499C30.3502 63.9 30.7433 63.95 31.1292 64C31.7152 64 32.294 64 32.88 64C33.7447 63.9071 34.6094 63.8213 35.4741 63.7284C41.8843 63.0353 47.5656 60.6127 52.4965 56.4821C58.1778 51.7156 61.8796 45.677 63.2874 38.3949C65.2598 28.2615 62.9372 19.1285 56.2698 11.2176ZM34.4236 25.8175C36.5889 25.8175 38.6828 25.8175 40.8624 25.8175C40.7838 26.7179 40.7195 27.5397 40.6409 28.3615C40.4979 29.7908 40.305 31.2129 40.1978 32.6422C40.1549 33.1781 39.962 33.2925 39.476 33.2853C37.8324 33.2639 36.1887 33.2782 34.4236 33.2782C34.4236 33.5712 34.4236 33.8284 34.4236 34.0857C34.4236 40.5245 34.4236 46.9561 34.4236 53.3949C34.4236 54.2382 34.4236 54.2453 33.5589 54.2453C31.1649 54.2453 28.7638 54.231 26.3698 54.2596C25.7552 54.2668 25.5979 54.0595 25.5979 53.4735C25.6194 47.0347 25.6123 40.6031 25.6123 34.1643C25.6123 33.8999 25.6123 33.6355 25.6123 33.2853C24.4474 33.2853 23.3469 33.2496 22.2535 33.2996C21.6532 33.3282 21.4674 33.1424 21.4817 32.535C21.5174 30.534 21.5103 28.533 21.4817 26.5392C21.4746 26.0033 21.6175 25.8032 22.182 25.8246C23.2826 25.8675 24.3902 25.8389 25.5694 25.8389C25.5837 25.5673 25.6051 25.3315 25.6051 25.0885C25.6408 23.3806 25.5837 21.6655 25.7337 19.9718C26.0767 15.9913 28.4851 12.8684 32.8943 12.4897C35.3741 12.2753 37.8895 12.3896 40.3836 12.3539C40.7409 12.3467 40.9124 12.4682 40.9124 12.8613C40.9053 14.9623 40.8981 17.0704 40.9124 19.1714C40.9124 19.6288 40.6552 19.6574 40.305 19.6574C38.9686 19.6502 37.6394 19.6502 36.3031 19.6574C35.0525 19.6645 34.4236 20.2862 34.4165 21.544C34.4165 22.9232 34.4236 24.3382 34.4236 25.8175Z" fill="#5A6773"/>
</svg>
