<svg width="64" height="64" viewBox="0 0 64 64" fill="none" xmlns="http://www.w3.org/2000/svg">
<path d="M31.9471 1.37165e-06C14.3275 -0.00511863 0.0102455 14.3241 5.50128e-06 31.9727C-0.0102345 49.6316 14.2763 63.9761 31.8942 64C49.5138 64.0239 63.8464 49.7084 63.8737 32.0563C63.9027 14.3701 49.594 0.00512137 31.9471 1.37165e-06ZM51.6642 32.0273C51.6454 32.0273 51.6266 32.0273 51.6062 32.0273C51.6062 34.9918 51.7547 37.9631 51.5703 40.9156C51.316 44.9843 49.6333 48.3072 45.8155 50.2221C43.9552 51.1556 41.9464 51.5413 39.8899 51.555C34.5907 51.5908 29.2898 51.5874 23.9906 51.5567C22.0638 51.5447 20.1779 51.1966 18.4081 50.3893C14.8087 48.7492 12.9946 45.8018 12.4058 42.0011C12.2658 41.0999 12.2214 40.1766 12.218 39.2619C12.201 34.2937 12.2078 29.3239 12.2112 24.3541C12.2129 22.6355 12.4655 20.9527 13.0765 19.3416C14.5681 15.4129 17.5497 13.3547 21.5757 12.6822C22.6184 12.5082 23.6919 12.4433 24.7501 12.4382C29.7523 12.4143 34.7546 12.4143 39.7551 12.4348C41.5095 12.4416 43.2333 12.7164 44.8751 13.3581C48.8363 14.9077 50.8569 17.961 51.4713 22.0552C51.6096 22.9786 51.6454 23.9223 51.654 24.8576C51.6813 27.2503 51.6642 29.6397 51.6642 32.0273Z" fill="#5A6773"/>
<path d="M47.8952 22.6889C47.5027 19.4702 45.4803 17.1781 42.3452 16.4562C41.4816 16.2582 40.577 16.1609 39.6913 16.1473C37.1159 16.108 34.5406 16.1336 31.9635 16.1336C31.9635 16.1132 31.9635 16.091 31.9635 16.0705C31.4532 16.0705 30.9412 16.0603 30.4309 16.0722C27.8146 16.1302 25.1897 16.0807 22.5837 16.2838C19.5953 16.5176 17.4005 18.0553 16.426 20.9737C16.0608 22.066 15.8782 23.2658 15.8645 24.4195C15.8048 29.3466 15.8338 34.2755 15.8458 39.2026C15.8475 39.9041 15.8799 40.6123 15.9823 41.3053C16.3885 44.0496 17.9569 46.7734 21.4078 47.5039C22.3174 47.6967 23.2561 47.8281 24.1845 47.8469C27.207 47.9083 30.2295 47.9356 33.2537 47.9169C35.9127 47.8998 38.5802 47.91 41.229 47.7189C44.2481 47.5005 46.465 45.9645 47.4498 43.0222C47.8218 41.9128 47.9942 40.6874 48.0096 39.5133C48.0693 34.6083 48.0403 29.6999 48.0283 24.7933C48.0249 24.0918 47.9806 23.3853 47.8952 22.6889ZM31.9772 42.4009C26.1984 42.3975 21.558 37.7844 21.5545 32.0398C21.5494 26.2303 26.1643 21.6001 31.9601 21.6001C37.703 21.6001 42.3059 26.232 42.3196 32.0261C42.3298 37.7366 37.6774 42.4043 31.9772 42.4009ZM42.4134 23.7181C41.2563 23.7334 40.3364 22.8545 40.3023 21.7025C40.2681 20.5402 41.2034 19.5794 42.369 19.5777C43.5108 19.576 44.4341 20.4856 44.4495 21.6274C44.4665 22.764 43.5518 23.7027 42.4134 23.7181Z" fill="#5A6773"/>
<path d="M31.9289 25.293C28.2186 25.3015 25.232 28.3035 25.2422 32.0121C25.2525 35.7292 28.2477 38.7193 31.9511 38.7108C35.6648 38.7006 38.6464 35.7036 38.6361 31.9899C38.6259 28.2694 35.6375 25.2845 31.9289 25.293Z" fill="#5A6773"/>
</svg>
