<svg width="64" height="64" viewBox="0 0 64 64" fill="none" xmlns="http://www.w3.org/2000/svg">
<path d="M63.4906 26.4772C61.7076 16.9163 56.6197 9.60435 48.3634 4.5164C44.1142 1.90099 39.4486 0.472141 34.4663 0.0993982C34.3048 0.0869734 34.1433 0.0310619 33.988 0C32.6523 0 31.3228 0 29.9872 0C28.8379 0.161522 27.6824 0.28577 26.5393 0.484566C19.1341 1.77674 12.9404 5.2681 7.97049 10.8903C3.44788 15.9969 0.888365 21.9918 0.149091 28.7696C0.105604 29.1796 0.0496991 29.5896 0 29.9996C0 31.3353 0 32.6647 0 34.0004C0.161522 35.1932 0.27955 36.3922 0.496983 37.5787C1.91341 45.3877 5.72161 51.7989 11.8408 56.8309C16.4504 60.6205 21.7496 62.8693 27.6513 63.708C28.4279 63.8198 29.2106 63.9006 29.9934 64C31.3291 64 32.6585 64 33.9942 64C35.187 63.8385 36.3859 63.7204 37.5663 63.503C45.3691 62.0804 51.7927 58.2846 56.8185 52.1592C60.8565 47.239 63.1489 41.5609 63.8323 35.2304C63.8758 34.8204 63.9317 34.4104 63.9876 34.0004C63.9876 32.6647 63.9876 31.3353 63.9876 29.9996C63.8198 28.8193 63.7018 27.6327 63.4906 26.4772ZM51.9045 34.5409C51.7864 36.7401 51.6063 38.9454 51.2397 41.1136C50.8173 43.6234 49.14 45.1578 46.5929 45.3318C42.2132 45.63 37.821 45.7729 33.4351 45.9779C33.0002 45.9965 32.5591 45.9779 32.1242 45.9779C32.1242 46.0276 32.118 46.0711 32.118 46.1208C27.6265 45.9095 23.1349 45.7045 18.6434 45.4809C18.0221 45.4498 17.4009 45.3504 16.7921 45.22C14.624 44.7602 13.1516 43.4618 12.7789 41.2813C12.3875 38.9889 12.1887 36.6593 12.0582 34.3359C11.8657 30.8383 12.0272 27.3407 12.518 23.868C13.0149 20.3518 14.6674 18.7987 18.2271 18.5005C25.7503 17.8606 33.286 17.873 40.8216 18.1899C42.7101 18.2706 44.6049 18.4197 46.4873 18.6309C49.2704 18.9478 50.8856 20.5009 51.3578 23.2654C51.9852 27.0052 52.1033 30.7699 51.9045 34.5409Z" fill="#5A6773"/>
<path d="M28.0312 37.9643C31.4978 35.964 34.8959 34.0071 38.4122 31.988C34.8897 29.9628 31.4915 28.0059 28.0312 26.0117C28.0312 30.0311 28.0312 33.9511 28.0312 37.9643Z" fill="#5A6773"/>
</svg>
