<svg width="55" height="55" viewBox="0 0 55 55" fill="none" xmlns="http://www.w3.org/2000/svg">
<path d="M11.5249 55C11.2192 54.7785 11.0928 54.4633 11.0942 53.9321C11.0996 40.5819 11.0996 27.233 11.0996 13.8828V1.06247C11.0996 0.169833 11.2735 0 12.1962 0H42.6199C43.8034 0 43.8985 0.0937477 43.8985 1.26084V53.6957H44.8008C45.5875 53.6957 46.3743 53.6957 47.161 53.697C47.9478 53.697 48.7345 53.6984 49.5226 53.6984C51.3081 53.6984 52.6792 53.6943 53.9673 53.6862H53.9863C54.4986 53.6862 54.7975 53.822 55 54.1508V55H11.5249ZM37.0732 3.69692C37.788 3.69692 38.5027 3.69692 39.2161 3.69964C39.9825 3.701 40.1727 3.89257 40.1849 4.67516C40.1863 4.78657 40.1863 4.89798 40.1863 5.00939V53.6631H42.5384V1.32062H12.4584V53.6617H14.8105C14.8105 53.6617 14.8105 18.274 14.8105 4.82733C14.8105 3.84501 14.9586 3.69828 15.9465 3.69828L37.0732 3.69692ZM16.153 53.6604H38.822V5.03656H16.153V53.6604ZM0.465582 55C-0.0738649 54.5856 -0.0358182 54.3438 0.0511455 54.1305C0.178873 53.8193 0.405794 53.693 0.833819 53.693C1.7184 53.6957 2.59483 53.6984 3.47127 53.6984C4.28927 53.6984 15.1086 53.697 15.9266 53.6916H15.9457C16.5517 53.6916 16.731 53.8845 16.8139 54.1726C16.8873 54.4266 16.8819 54.7025 16.3778 54.9986H0.465582V55ZM22.4593 51.3058C21.4673 51.3058 20.474 51.3044 19.4821 51.3031C18.7117 51.3017 18.5228 51.1115 18.5214 50.3316C18.5187 48.8534 18.5187 47.3752 18.5201 45.897V44.0981V42.3346C18.5201 40.8998 18.5187 39.4637 18.5214 38.029C18.5228 37.2138 18.7062 37.0263 19.5052 37.0235C20.4713 37.0208 21.4388 37.0195 22.4049 37.0195C23.371 37.0195 24.3385 37.0208 25.3046 37.0235C26.1022 37.0249 26.2979 37.2219 26.2979 38.0235C26.302 42.3903 26.302 46.416 26.2979 50.3276C26.2965 51.102 26.0995 51.3031 25.3372 51.3044C24.3765 51.3044 23.4172 51.3058 22.4593 51.3058ZM19.8585 49.958H24.954V38.3645H19.8585V49.958ZM32.5851 51.3058C31.619 51.3058 30.6515 51.3058 29.6854 51.3031C28.9041 51.3017 28.7016 51.1061 28.7016 50.3493C28.6962 46.397 28.6962 42.2394 28.7016 37.9923C28.703 37.2246 28.9014 37.0249 29.6705 37.0235C30.6515 37.0208 31.6312 37.0195 32.6123 37.0195C33.5825 37.0195 34.5527 37.0208 35.5228 37.0249C36.2879 37.0276 36.474 37.2205 36.4754 38.0059C36.4781 39.4678 36.4781 40.9311 36.4767 42.393V45.9608C36.4767 47.4092 36.4781 48.8588 36.4754 50.3072C36.474 51.1156 36.2892 51.3017 35.4848 51.3031C34.5173 51.3044 33.5512 51.3058 32.5851 51.3058ZM30.0564 49.9648H35.1424V38.3673H30.0564V49.9648ZM32.5199 34.6282C31.5619 34.6282 30.6053 34.6269 29.6474 34.6255C28.8878 34.6241 28.7016 34.4421 28.7016 33.703C28.6962 29.521 28.6962 25.3458 28.7016 21.293C28.703 20.5579 28.8891 20.3772 29.6541 20.3759C30.6203 20.3745 31.5877 20.3731 32.5538 20.3731C33.5376 20.3731 34.5228 20.3745 35.5065 20.3759C36.3014 20.3772 36.4727 20.5457 36.4754 21.3269C36.4781 22.8038 36.4781 24.2793 36.4767 25.7562V27.5591V29.2438C36.4767 30.7058 36.4781 32.1677 36.4754 33.6296C36.474 34.4584 36.3096 34.6269 35.4997 34.6282C34.5065 34.6282 33.5132 34.6282 32.5199 34.6282ZM30.0441 33.2764H35.1478V21.7155H30.0441V33.2764ZM22.3152 34.6282C21.3709 34.6282 20.4265 34.6282 19.4835 34.6255C18.6926 34.6241 18.5214 34.4543 18.5214 33.669C18.5187 29.3974 18.5187 25.2399 18.5214 21.3133C18.5214 20.562 18.7035 20.3786 19.4481 20.3759C20.4333 20.3731 21.4184 20.3731 22.4022 20.3731C23.386 20.3731 24.3697 20.3745 25.3549 20.3759C26.1077 20.3772 26.2925 20.5606 26.2952 21.3065C26.3006 22.7617 26.2992 24.2399 26.2979 25.6706L26.2965 27.4844V29.2126C26.2965 30.6772 26.2979 32.1432 26.2952 33.6079C26.2938 34.4733 26.1416 34.6255 25.2801 34.6269C24.2923 34.6269 23.3044 34.6282 22.3152 34.6282ZM19.8612 33.275H24.9404V21.7006H19.8612V33.275ZM27.3849 17.9805H22.9906C21.8383 17.9805 20.6847 17.9805 19.5324 17.9792C18.7035 17.9778 18.5337 17.8039 18.5187 16.9425C18.4535 13.2809 19.9509 10.4916 22.9702 8.65332C24.3195 7.83133 25.8658 7.39791 27.442 7.39791C31.8907 7.39791 35.7199 10.6587 36.3476 14.9847C36.4455 15.6586 36.4604 16.3447 36.4699 17.1083C36.474 17.4344 36.4156 17.6531 36.2933 17.7767C36.1601 17.9112 35.9087 17.9778 35.5242 17.9792C34.6124 17.9819 33.702 17.9819 32.7903 17.9819L27.3849 17.9805ZM29.3457 16.6368H35.0812L35.1084 16.3963C35.2456 15.1994 34.7904 13.5187 34.0268 12.4005L33.842 12.1301L29.3457 16.6368ZM20.9754 12.3597C20.1819 13.6641 19.815 14.9765 19.8517 16.3719L19.8585 16.6368H25.7L21.1562 12.0622L20.9754 12.3597ZM26.4976 8.81364C24.9921 8.94951 23.0897 9.85438 22.3451 10.7891L22.1929 10.9793L26.7925 15.554V8.78783L26.4976 8.81364ZM28.1975 15.5309L32.846 10.891L32.634 10.6995C31.4709 9.64922 30.0822 9.00793 28.506 8.79326L28.1975 8.75114V15.5309Z" fill="#777777"/>
</svg>
